<?xml version="1.0" encoding="UTF-8"?>
<svg id="Layer_1" data-name="Layer 1" xmlns="http://www.w3.org/2000/svg" width="283.3" height="36.6" version="1.1" viewBox="0 0 283.3 36.6">
  <defs>
    <style>
      .cls-1 {
        fill: #ce2030;
        stroke-width: 0px;
      }
    </style>
  </defs>
  <g id="seaspan-sac-logo">
    <g id="Group_55" data-name="Group 55">
      <path id="Path_61" data-name="Path 61" class="cls-1" d="M0,.9l15.3,26.5h19.2L19.4.9H0Z"/>
      <path id="Path_62" data-name="Path 62" class="cls-1" d="M32.3.9h-6.5l15.1,26.5h6.5L32.3.9Z"/>
      <g id="Group_54" data-name="Group 54">
        <path id="Path_63" data-name="Path 63" class="cls-1" d="M44.2,3.7v-1.9h3.2l-3.2,1.9ZM39.4.6v3.4c0,.6.2.9.9,1.3l.6.6.9-1.1c.5-.2,1-.2,1.5,0,1.1.2,1.3,1.5,1.3,2.4v.2h-3l-1.1,1.9h4.5l3.7-6.2-1.1-1.9,2.6,1.5-6.2,10.8,2.6,4.3L56.2.6h-16.8Z"/>
        <path id="Path_64" data-name="Path 64" class="cls-1" d="M153.6,22h-15.1s-.6,0-.6-.4c0,0-.2-.4.6-.9l15.1-7.1v8.4ZM153.6.4h-21.3v5.6h19.4c.4,0,.7,0,1.1.2.4.2.2,1.3.2,1.3l-18.7,9c-1.8,1.2-2.9,3.2-2.8,5.4.1,3.2,2.7,5.7,5.8,5.8h22.2V5.8c-.2-5.4-5.8-5.4-5.8-5.4"/>
        <path id="Path_65" data-name="Path 65" class="cls-1" d="M243.9,22h-15.1s-.6,0-.6-.4c0,0-.2-.4.6-.9l15.1-7.1v8.4ZM243.9.4h-21.3v5.6h19.4c.4,0,.7,0,1.1.2.6.2.4,1.1.4,1.1l-18.7,9c-1.8,1.2-2.9,3.2-2.8,5.4.1,3.2,2.7,5.7,5.8,5.8h22.2V5.8c-.4-5.4-6-5.4-6-5.4"/>
        <path id="Path_66" data-name="Path 66" class="cls-1" d="M253.8,27.8V7.3s13.6-5.8,14.9-6.2c3.4-1.3,13.1-3,14.6,5.6v21.1h-6V9c.4-3-3.4-3.4-6.2-2.4l-11.2,4.5v16.6h-6.1Z"/>
        <path id="Path_67" data-name="Path 67" class="cls-1" d="M107.9,11c1.5-3.2,3.7-5,7.5-5s5.8,1.7,7.5,5h-15.1,0ZM129.9,14.2c0-7.9-6.5-14.2-14.4-14.2s-14.9,6.5-14.4,14.2c.4,7.8,5.8,13.4,14.2,13.6h12.1v-5.8h-12.3c-4.3,0-6.5-2.2-8-6h22.2c.4,0,.6-1.7.6-1.7"/>
        <path id="Path_68" data-name="Path 68" class="cls-1" d="M206.6,22h-8.4V6.2h8.4c4.3-.2,8,3.2,8.2,7.6v.4c0,4.7-3.4,7.8-8.2,7.8M206.6.4h-14.7v36.2h6.2v-8.6h8.4c7.7,0,13.9-6.1,14-13.8-.2-7.6-6.4-13.7-14-13.8"/>
        <path id="Path_69" data-name="Path 69" class="cls-1" d="M97.6.4h-16.8s-5.6-.4-7.3,4.3c-1.3,2.9,0,6.4,2.8,7.8l15.3,6.9s1.5.6,1.7,1.5c0,.4-.2.8-.6.9h-19.4v6h20c1.8,0,3.6-.7,4.7-2.2,1.5-1.6,2.2-3.9,1.7-6-.4-1.3-.9-3-4.1-4.5l-15.5-7.1c-1.1-.4-1.3-.6-1.3-1.1,0-.9,1.1-.9,1.1-.9h17.9V.4h-.2Z"/>
        <path id="Path_70" data-name="Path 70" class="cls-1" d="M187.6.4h-16.8s-5.6-.4-7.3,4.3c-1.3,2.9,0,6.4,2.8,7.8l15.3,6.9s1.5.6,1.7,1.5c0,.4-.2.8-.6.9h-19.2v6h20c1.8,0,3.6-.7,4.7-2.2,1.5-1.6,2.2-3.9,1.7-6-.4-1.3-.9-3-4.1-4.5l-15.7-7.1c-1.1-.4-1.3-.6-1.3-1.1,0-.9,1.1-.9,1.1-.9h17.9V.4h-.2,0Z"/>
      </g>
    </g>
  </g>
</svg>